<svg xmlns="http://www.w3.org/2000/svg" width="512" height="512" viewBox="0 0 44.238 44.238"><g fill="#FFF"><path d="M22.119 44.237C9.922 44.237 0 34.315 0 22.119S9.922.001 22.119.001s22.119 9.922 22.119 22.118-9.924 22.118-22.119 22.118zm0-42.736C10.75 1.501 1.5 10.75 1.5 22.119c0 11.368 9.25 20.618 20.619 20.618s20.619-9.25 20.619-20.618c0-11.369-9.25-20.618-20.619-20.618z"/><path d="M24.667 29.884a.74.74 0 0 1-.53-.22l-7.328-7.334a.752.752 0 0 1 0-1.061l7.328-7.333a.75.75 0 1 1 1.061 1.061L18.4 21.8l6.798 6.805a.752.752 0 0 1 0 1.061.75.75 0 0 1-.531.218z"/></g></svg>